<?xml version="1.0" encoding="UTF-8"?>
<!DOCTYPE svg PUBLIC "-//W3C//DTD SVG 1.1//EN" "http://www.w3.org/Graphics/SVG/1.1/DTD/svg11.dtd">
<svg version="1.1" xmlns="http://www.w3.org/2000/svg" xmlns:xlink="http://www.w3.org/1999/xlink" x="0" y="0" width="485" height="428" viewBox="0, 0, 485, 428">
  <g id="Layer_1">
    <path d="M453.231,356.101 C457.134,358.757 461.33,359.237 465.218,360.496 C469.501,361.883 473.478,363.615 474.288,368.654 C475.113,373.787 472.68,377.7 468.86,380.794 C463.965,384.758 458.055,385.737 451.999,386.037 C449.69,386.152 448.223,386.126 448.322,389.481 C448.485,394.947 444.082,397.496 439.778,399.459 C429.7,404.054 419.033,405.251 408.081,404.285 C405.597,404.066 402.96,404.104 400.684,403.249 C391.083,399.639 382.024,403.819 372.745,404.797 C370.362,405.049 371.097,406.909 370.871,408.206 C369.927,413.613 367.978,418.479 363.461,421.906 C359.244,425.105 354.587,426.784 349.566,424.063 C347.593,422.994 346.665,423.796 345.264,424.76 C338.422,429.47 333.196,429.129 327.271,423.183 C325.817,421.723 324.928,422.562 323.821,422.861 C313.753,425.578 307.363,419.713 309.258,409.52 C309.489,408.277 311.707,405.92 308.365,405.991 C305.963,406.043 302.325,403.858 301.302,408.228 C300.57,411.352 299.489,414.28 297.706,416.921 C292.809,424.173 285.261,426.272 277.459,422.303 C275.893,421.507 275.1,422.021 273.905,422.603 C265.51,426.688 261.769,425.963 255.912,418.936 C254.965,417.801 254.177,417.666 252.944,418.024 C247.98,419.461 243.531,418.69 240.669,414.09 C237.721,409.351 238.58,404.478 241.475,399.99 C242.81,397.92 243.783,396.817 240.455,395.473 C206.762,381.868 185.111,356.651 172.124,323.438 C170.265,318.685 168.769,318.783 165.181,321.417 C161.717,323.959 157.811,325.916 154.04,328.022 C136.029,338.08 118.756,336.719 102.116,324.708 C79.732,308.55 64.902,286.509 53.236,262.026 C40.578,235.46 41.141,208.28 50.069,180.89 C52.971,171.987 57.77,163.934 63.362,156.448 C64.977,154.286 64.792,153.378 62.701,151.969 C57.834,148.687 53.554,144.717 50.249,139.831 C45.741,133.167 45.651,126.512 49.823,120.797 C54.554,114.315 62.274,111.434 69.555,113.303 C75.985,114.953 80.891,119.281 87.227,123.573 C87.227,114.257 87.08,105.857 87.254,97.464 C87.828,69.839 88.277,42.208 90.089,14.626 C90.274,11.806 90.671,8.994 91.089,6.196 C91.524,3.279 92.321,0.351 96.015,0.41 C99.657,0.467 100.526,3.44 100.948,6.312 C101.721,11.578 102.468,16.863 102.878,22.167 C105.315,53.693 106.875,85.27 108.211,116.858 C108.577,125.504 109.001,134.15 109.164,142.801 C109.223,145.92 110.799,148.074 112.499,150.344 C128.226,171.343 139.409,194.564 146.447,219.809 C153.651,217.013 155.732,213.675 156.082,205.451 C157.019,183.491 158.158,161.533 165.308,140.462 C171.221,123.036 180.238,107.467 193.599,94.638 C195.803,92.521 196.41,91.562 193.351,89.286 C177.391,77.409 174.623,55.194 186.914,40.249 C191.411,34.779 193.933,35.068 196.916,41.366 C202.859,53.91 212.925,62.879 223.155,71.729 C224.713,73.077 225.815,72.228 227.187,71.696 C233.074,69.415 238.953,67.107 244.905,65.008 C246.597,64.411 247.94,64.133 247.933,61.864 C247.925,59.586 246.448,59.199 244.843,58.649 C237.14,56.013 229.45,53.339 221.751,50.692 C219.515,49.924 217.135,49.263 217.083,46.281 C217.032,43.324 219.254,42.529 221.555,41.738 C243.857,34.071 266.155,26.393 288.424,18.633 C290.598,17.875 292.483,17.878 294.655,18.635 C316.925,26.396 339.226,34.07 361.522,41.758 C363.801,42.544 366.065,43.389 365.966,46.351 C365.878,49.012 363.765,49.856 361.679,50.586 C359.171,51.464 356.57,52.12 354.153,53.196 C352.856,53.773 350.071,53.295 350.649,55.599 C351.145,57.578 351.272,60.359 354.289,60.979 C357.101,61.557 359.719,62.684 361.623,64.945 C363.197,66.815 364.226,65.419 365.271,64.436 C372.582,57.555 379.223,50.145 383.512,40.919 C386.071,35.415 388.538,35.034 392.649,39.543 C405.52,53.661 403.029,77.319 387.156,89.007 C384.019,91.317 383.779,92.277 386.611,95.05 C406.952,114.972 417.141,139.817 421.033,167.573 C422.442,177.623 423.545,187.715 424.794,197.787 C424.973,199.227 424.791,200.749 426.663,201.462 C439.196,206.235 445.609,216.824 450.898,228.045 C459.768,246.859 461.663,266.628 457.387,286.986 C457.225,287.756 457.153,288.546 457.003,289.578 C458.395,289.578 459.529,289.557 460.662,289.582 C469.954,289.778 474.792,295.848 472.565,304.759 C472.109,306.584 471.586,307.83 473.918,308.598 C485.494,312.413 486.085,326.211 482.509,335.305 C478.494,345.516 470.311,351.67 459.799,354.656 C457.801,355.223 455.736,355.557 453.231,356.101" fill="#6E4100"/>
    <path d="M459.551,74.914 C461.163,75.129 462.814,75.725 463.295,77.908 C463.545,79.044 463.965,80.166 464.043,81.312 C464.624,89.765 467.843,95.683 477.398,96.184 C479.848,96.313 481.841,97.819 481.801,100.706 C481.762,103.605 479.747,104.963 477.258,105.071 C467.858,105.478 464.849,111.439 464.091,119.602 C463.954,121.077 463.553,122.56 463.055,123.961 C462.417,125.758 460.76,126.416 459.071,126.438 C457.377,126.46 455.775,125.786 455.032,124.039 C454.645,123.126 454.268,122.142 454.205,121.169 C453.616,112.069 450.463,105.299 439.953,104.811 C437.573,104.701 436.396,102.928 436.286,100.77 C436.157,98.259 437.633,96.56 440.142,96.435 C450.418,95.92 453.367,89.313 454.216,80.407 C454.628,76.083 456.326,74.779 459.551,74.914" fill="#FFCF00"/>
    <path d="M42.572,89.887 C42.452,91.637 41.974,93.164 40.098,93.793 C38.137,94.451 36.345,94.023 35.293,92.29 C31.594,86.202 27.845,80.168 23.499,74.498 C22.275,72.901 22.366,70.605 24.251,69.129 C25.841,67.885 28.028,67.633 29.288,69.093 C34.491,75.124 38.788,81.805 42.391,88.918 C42.533,89.199 42.515,89.56 42.572,89.887" fill="#57A64F"/>
    <g>
      <path d="M24.36,108.618 C18.32,106.063 11.841,103.196 6.005,99.112 C4.435,98.012 4.635,96.089 5.236,94.539 C5.913,92.792 7.702,91.875 9.307,92.606 C15.745,95.539 22.118,98.633 28.373,101.935 C29.814,102.696 30.181,104.59 29.368,106.375 C28.467,108.353 26.904,108.89 24.36,108.618" fill="#57A64F"/>
      <path d="M12.76,130.172 C9.956,130.172 7.145,130.289 4.348,130.138 C1.752,129.997 -0.152,128.805 0.01,125.843 C0.158,123.129 2.054,122.152 4.432,122.193 C10.211,122.293 15.99,122.492 21.763,122.762 C24.117,122.872 25.331,124.352 25.331,126.678 C25.331,129.056 23.88,130.439 21.679,130.605 C18.722,130.827 15.735,130.66 12.761,130.66 C12.761,130.497 12.761,130.334 12.76,130.172" fill="#59A751"/>
    </g>
    <path d="M191.409,48.616 C199.692,62.329 210.886,72.692 223.209,81.946 C228.682,86.056 229.622,85.752 231.966,79.326 C232.382,78.188 233.134,77.847 234.085,77.5 C235.177,77.102 236.238,76.619 237.315,76.18 C242.842,73.924 247.09,71.879 252.876,78.161 C260.742,86.704 272.751,88.473 284.119,89.488 C297.042,90.642 309.714,89.182 321.708,83.77 C326.138,81.771 330.399,79.477 333.308,75.418 C334.357,73.953 335.296,73.491 337.013,74.234 C339.909,75.487 342.881,76.569 345.844,77.658 C347.184,78.15 347.771,78.826 348.17,80.394 C349.366,85.092 351.621,85.765 355.769,82.76 C368.671,73.413 380.194,62.692 388.586,48.92 C394.549,55.086 393.653,68.362 388.881,75.558 C384.494,82.174 378.53,86.317 370.68,87.481 C367.604,87.937 364.742,88.492 365.328,92.379 C365.862,95.923 368.858,96.271 371.539,95.455 C374.846,94.448 376.479,96.523 378.39,98.279 C397.162,115.532 407.533,137.297 411.908,162.039 C413.962,173.658 414.967,185.46 416.567,197.163 C416.814,198.967 416.671,199.99 414.688,200.382 C396.715,203.938 386.095,216.767 377.404,231.228 C354.634,269.118 367.787,321.882 405.011,343.876 C410.338,347.024 416.021,349.414 421.858,351.278 C425.032,352.291 425.091,353.453 424.16,356.218 C415.842,380.913 397.9,393.32 372.84,396.698 C357.247,398.8 341.56,397.759 325.918,397.774 C308.453,397.791 290.971,398.558 273.552,396 C226.8,389.134 196.041,362.688 179.044,319.312 C168.654,292.798 164.801,265.016 163.94,236.756 C163.184,211.93 163.867,187.127 168.079,162.593 C172.326,137.854 182.491,115.995 201.055,98.533 C203.4,96.328 205.502,94.263 209.289,95.525 C211.923,96.402 214.515,95.354 214.914,92.234 C215.309,89.144 213.257,87.987 210.332,87.615 C190.009,85.035 181.871,62.557 191.409,48.616" fill="#F2ECD9"/>
    <path d="M111.589,162.84 C123.636,181.447 133.705,201.753 139.077,224.195 C139.386,225.488 139.577,226.816 139.969,228.083 C141.061,231.612 143.391,232.499 146.48,230.625 C149.296,228.916 151.915,226.882 154.707,224.931 C155.736,226.828 155.897,228.633 155.896,230.428 C155.891,256.7 159.108,282.529 166.582,307.761 C167.153,309.689 166.854,310.895 165.175,311.958 C157.582,316.764 150.048,321.643 141.519,324.748 C129.405,329.158 118.613,325.949 108.439,319.195 C94.602,310.007 83.974,297.715 74.888,283.996 C64.717,268.637 55.424,252.614 52.849,234.169 C49.213,208.117 53.637,183.426 69.551,161.644 C70.606,160.2 71.55,158.587 73.622,158.195 C75.547,157.832 76.974,156.826 77.154,154.593 C77.348,152.195 75.832,151.055 74.111,149.879 C70.543,147.44 67.005,144.949 63.557,142.343 C61.025,140.429 58.89,138.086 57.068,135.465 C54.929,132.387 53.759,129.174 56.274,125.815 C59.042,122.116 62.721,119.572 67.446,121.085 C74.581,123.37 80.069,128.359 85.424,133.399 C86.674,134.575 86.392,136.167 86.383,137.64 C86.34,145.301 86.249,152.962 86.203,160.623 C86.192,162.33 86.264,163.923 84.13,164.61 C82.163,165.243 81.135,166.797 81.502,168.863 C81.864,170.899 83.466,171.695 85.352,172.298 C92.73,174.659 97.721,179.959 101.664,186.29 C104.183,190.334 103.088,191.965 98.273,192.02 C94.678,192.06 91.417,190.795 88.217,189.361 C84.422,187.661 80.69,185.816 76.868,184.178 C74.574,183.195 72.219,183.03 70.747,185.607 C69.251,188.227 70.645,190.079 72.763,191.48 C75.399,193.224 78.168,194.767 80.8,196.517 C82.733,197.803 84.661,199.149 86.358,200.719 C87.711,201.97 88.762,203.667 87.805,205.635 C86.978,207.335 85.258,207.54 83.549,207.706 C79.669,208.084 75.956,206.843 72.139,206.617 C69.615,206.467 67.218,206.692 66.815,209.729 C66.403,212.825 68.37,214.255 71.219,214.605 C78.437,215.493 85.701,217.382 92.601,213.035 C93.527,212.452 95.185,212.894 96.48,213.056 C106.83,214.351 112.2,208.633 111.716,198.175 C111.166,186.298 111.589,174.376 111.589,162.84" fill="#D5B58F"/>
    <path d="M451.398,271.369 C451.51,278.603 449.531,289.311 444.654,299.39 C443.385,302.013 442.569,304.651 445.632,306.319 C448.367,307.809 450.254,306.129 451.73,303.725 C453.23,301.282 455.26,299.291 457.973,298.169 C460.314,297.2 462.793,297.253 464.444,299.161 C466.165,301.151 464.686,303.196 463.505,305.052 C462.289,306.964 460.439,307.985 458.52,309.046 C456.508,310.159 455.962,312.069 456.904,314.197 C457.765,316.145 459.423,316.709 461.441,316.399 C461.604,316.374 461.757,316.294 461.918,316.258 C466.783,315.178 471.717,314.41 474.94,319.419 C478.232,324.539 476.864,329.753 473.991,334.492 C469.098,342.565 461.775,347.333 452.332,347.731 C419.651,349.111 384.172,330.211 376.112,288.84 C370.27,258.855 378.827,233.466 403.007,214.245 C415.65,204.196 426.193,205.952 435.964,218.891 C446.796,233.236 451.376,249.635 451.398,271.369" fill="#D5B58F"/>
    <path d="M234.326,45.889 C248.792,40.88 263.295,36.477 277.284,30.806 C287.163,26.802 296.016,26.702 305.9,30.836 C318.61,36.152 331.905,40.069 344.943,44.602 C346.152,45.022 347.327,45.54 349.251,46.302 C330.143,52.891 311.765,59.229 293.385,65.561 C292.082,66.01 290.781,65.961 289.47,65.507 C271.399,59.25 253.324,53.004 235.255,46.739 C235.004,46.652 234.825,46.356 234.326,45.889" fill="#B09EB9"/>
    <path d="M403.15,395.329 C417.726,386.623 426.442,374.226 431.646,359.176 C432.39,357.026 433.122,356.053 435.5,357.228 C444.589,361.718 453.792,365.927 463.654,368.535 C467.137,369.457 466.606,371.618 464.638,373.713 C462.36,376.141 459.268,377.141 456.145,377.541 C448.821,378.478 441.517,378.341 434.54,375.485 C431.928,374.416 429.155,373.365 427.538,376.45 C425.75,379.861 428.424,381.556 431.052,382.955 C431.931,383.424 432.834,383.855 433.685,384.373 C435.918,385.731 439.829,386.565 439.651,389.013 C439.424,392.118 435.378,392.675 432.663,393.6 C423.365,396.766 413.845,397.484 403.15,395.329" fill="#D5B58E"/>
    <path d="M326.566,62.693 C328.4,68.589 326.585,72.459 321.427,74.88 C300.984,84.477 280.647,84.373 260.441,74.2 C259.278,73.615 258.255,72.663 257.32,71.728 C254.97,69.378 255.283,66.071 256.315,63.785 C257.247,61.722 259.769,63.927 261.449,64.482 C270.132,67.348 278.784,70.318 287.383,73.426 C290.197,74.443 292.717,74.474 295.559,73.452 C305.849,69.749 316.218,66.263 326.566,62.693" fill="#B09EB9"/>
    <path d="M97.033,57.737 C99.141,85.782 100.2,113.881 101.172,141.98 C101.53,152.355 101.23,162.752 101.23,172.72 C95.954,170.179 93.831,165.655 94.051,158.617 C95.099,125.014 95.551,91.391 96.214,57.776 C96.464,57.278 96.737,57.265 97.033,57.737" fill="#FDFDFD"/>
    <path d="M277.307,404.85 C275.728,407.669 274.345,410.289 272.813,412.819 C271.656,414.73 269.858,415.98 267.727,416.571 C266.312,416.963 264.661,417.309 263.548,415.967 C262.594,414.816 263.082,413.455 263.656,412.22 C264.075,411.32 264.624,410.467 264.931,409.532 C265.592,407.523 265.693,405.492 263.595,404.26 C261.638,403.111 259.717,403.563 258.213,405.225 C256.187,407.463 254.071,409.491 251.012,410.27 C247.668,411.122 246.64,409.566 247.226,406.591 C248.16,401.851 251.836,399.487 256.423,400.771 C263.247,402.683 270.288,403.499 277.307,404.85" fill="#FF8F75"/>
    <path d="M346.003,407.637 C344.679,411.858 343.801,416.337 339.539,418.867 C338.072,419.737 336.419,420.486 334.901,419.464 C333.257,418.357 333.723,416.421 334.243,414.928 C335.206,412.158 336.178,409.549 333.116,407.452 C336.34,405.567 343.395,405.668 346.003,407.637" fill="#FF8F74"/>
    <path d="M346.003,407.637 C341.73,406.014 337.429,406.28 333.116,407.452 C330.574,407.12 328.612,407.887 327.244,410.202 C326.583,411.32 325.71,412.445 324.66,413.172 C322.689,414.536 320.659,416.65 318.001,415.11 C316.567,414.279 316.795,412.421 317.342,410.998 C318.336,408.414 319.003,405.642 322.895,405.751 C330.354,405.96 337.823,405.817 345.288,405.806 C347.167,405.803 348.187,406.08 346.003,407.637" fill="#FE8E74"/>
    <path d="M351.486,405.797 C354.121,405.797 355.93,405.809 357.739,405.795 C363.503,405.751 364.003,406.558 361.482,411.786 C360.598,413.621 359.391,415.18 357.613,416.186 C356.488,416.823 355.234,417.642 353.915,416.988 C352.394,416.235 352.866,414.682 353.03,413.438 C353.36,410.943 353.585,408.51 351.486,405.797" fill="#FC8D72"/>
    <path d="M287.102,405.542 C289.107,406.062 292.379,404.625 292.97,406.448 C293.836,409.116 291.741,411.744 289.685,413.766 C288.876,414.561 287.904,415.242 286.902,415.78 C285.597,416.48 284.145,417.209 282.775,415.958 C281.521,414.815 282.236,413.501 282.769,412.315 C283.762,410.106 283.912,407.909 282.947,405.664 C284.311,404.926 285.702,405.08 287.102,405.542" fill="#FF8F74"/>
    <path d="M341.048,57.534 C344.026,58.651 344.345,61.645 345.027,64.062 C345.396,65.371 344.366,68.146 342.711,67.496 C340.048,66.45 335.756,67.602 335.147,62.901 C334.548,58.271 338.532,58.973 341.048,57.534" fill="#FAF9F8"/>
    <path d="M99.572,205.228 C96.804,205.633 96.049,204.331 95.989,202.164 C95.886,198.413 98.805,200.531 100.272,200.05 C101.564,199.627 103.739,198.786 103.669,201.748 C103.598,204.728 101.27,204.829 99.572,205.228" fill="#EEEBE6"/>
    <path d="M351.635,71.008 C352.932,69.301 354.245,69.078 355.648,70.639 C356.08,71.12 356.381,71.921 355.711,72.291 C353.997,73.237 352.852,72.074 351.635,71.008" fill="#A894A6"/>
    <path d="M97.033,57.737 C96.761,57.769 96.488,57.782 96.214,57.776 C96.214,56.305 96.214,54.834 96.214,53.364 C96.487,53.354 96.76,53.344 97.033,53.333 C97.033,54.801 97.033,56.269 97.033,57.737" fill="#DCD4CA"/>
    <path d="M287.102,405.542 C285.717,405.583 284.332,405.624 282.947,405.664 C284.276,403.734 285.693,404.787 287.102,405.542" fill="#B6673C"/>
    <path d="M283.168,227.53 C266.802,226.643 243.544,227.548 220.923,221.683 C204.934,217.538 190.936,209.86 185.431,193.321 C177.524,169.563 179.012,145.858 191.538,123.86 C204.409,101.255 229.44,94.371 254.895,105.262 C262.616,108.566 269.451,113.216 276.193,118.119 C288.331,126.944 293.855,126.94 305.619,117.679 C313.409,111.547 321.706,106.525 331.09,103.252 C354.019,95.254 375.046,102.454 387.348,123.443 C398.844,143.056 401.501,164.439 397.395,186.61 C394.894,200.119 386.673,209.556 374.645,215.866 C362.923,222.016 350.173,224.226 337.225,225.581 C321.486,227.229 305.698,227.977 283.168,227.53" fill="#6E4100"/>
    <path d="M291.207,266.729 C293.851,266.729 296.512,266.543 299.136,266.772 C303.13,267.12 306.689,268.569 308.072,272.728 C309.509,277.047 307.662,280.541 304.427,283.315 C296.91,289.758 282.498,289.1 275.579,282.057 C273.096,279.529 271.876,276.563 272.931,273.011 C273.942,269.608 276.511,268.055 279.814,267.316 C283.604,266.467 287.408,267.028 291.207,266.729" fill="#6E4100"/>
    <path d="M242.336,278.684 C233.248,278.725 225.583,273.473 222.739,265.221 C221.608,261.94 221.114,258.519 223.925,255.921 C226.595,253.455 229.922,254.149 232.828,255.572 C237.178,257.703 241.615,259.306 246.382,260.334 C253.713,261.915 256.586,264.989 256.069,269.631 C255.561,274.188 250.36,278.205 244.334,278.677 C243.672,278.728 243.002,278.684 242.336,278.684" fill="#6E4100"/>
    <path d="M340.942,279.236 C337.762,278.951 334.091,278.728 330.842,276.81 C327.798,275.014 325.768,272.483 325.948,268.758 C326.13,264.982 328.406,262.413 331.791,261.495 C337.547,259.934 342.945,257.843 348.284,255.084 C353.463,252.409 358.24,256.332 358.183,262.261 C358.097,271.227 350.174,279.243 340.942,279.236" fill="#6E4100"/>
    <path d="M290.937,219.765 C269.367,218.782 247.674,219.345 226.379,214.746 C224.593,214.36 222.806,213.955 221.053,213.441 C202.647,208.044 191.416,196.647 189.664,176.805 C187.948,157.38 189.65,138.694 202.136,122.833 C212.05,110.24 225.513,105.691 241.268,109.28 C250.424,111.366 258.838,115.327 266.377,121.017 C267.705,122.02 269.029,123.027 270.372,124.009 C286.429,135.747 296.662,135.625 312.084,123.016 C320.095,116.466 329.01,111.963 338.969,109.42 C354.542,105.445 367.659,109.989 376.915,122.687 C391.3,142.422 394.16,164.854 388.596,188.241 C386.042,198.973 377.996,205.595 368.169,210.06 C354.88,216.099 340.605,217.376 326.35,218.514 C314.578,219.454 302.77,220.018 290.937,219.765" fill="#FEFEFE"/>
    <path d="M281.474,274.702 C286.98,274.702 292.486,274.695 297.992,274.71 C298.812,274.712 299.893,274.791 299.864,275.784 C299.845,276.437 299.113,277.191 298.522,277.687 C294.344,281.192 286.855,280.427 281.474,274.702" fill="#F7F5F3"/>
    <path d="M247.385,269.004 C241.094,272.185 235.89,270.733 232.271,264.679 C236.937,266.973 242.178,267.21 247.385,269.004" fill="#F5F4F1"/>
    <path d="M348.673,264.522 C345.715,271.787 341.118,273.086 334.411,269.015 C339.171,267.236 344.457,267.849 348.673,264.522" fill="#F7F5F3"/>
    <path d="M245.982,172.569 C251.701,183.2 244.594,192.025 236.961,196.111 C230.869,199.374 224.854,197.029 219.671,193.624 C213.86,189.805 211.997,183.828 213.187,177.034 C214.71,168.343 222.07,161.599 230.81,160.698 C232.023,161.34 232.038,162.565 232.296,163.689 C233.771,170.101 236.598,172.3 243.12,172.104 C244.113,172.074 245.118,171.853 245.982,172.569" fill="#FFE0C5"/>
    <path d="M349.195,159.753 C350.337,161.622 352.282,162.083 354.195,162.581 C360.724,164.28 366.164,170.352 367.004,176.897 C367.904,183.907 364.654,191.216 358.63,194.21 C352.234,197.389 345.756,196.139 340.304,192.067 C335.209,188.26 334.175,182.482 335.345,176.351 C335.592,175.054 335.921,173.772 336.212,172.483 C336.975,171.733 337.975,171.668 338.953,171.502 C345.218,170.441 347.181,168.503 348.152,162.388 C348.306,161.418 348.214,160.382 349.195,159.753" fill="#FFE0C5"/>
    <path d="M290.358,162.752 C291.354,162.752 292.355,162.68 293.343,162.763 C304,163.649 307.678,169.639 303.575,179.464 C301.175,185.211 297.256,189.938 293.215,194.566 C291.107,196.981 289.013,196.765 286.915,194.466 C282.76,189.913 278.994,185.085 276.53,179.389 C272.507,170.086 275.827,164.235 285.888,162.865 C287.352,162.665 288.867,162.837 290.358,162.837 C290.358,162.809 290.358,162.78 290.358,162.752" fill="#6E4100"/>
    <path d="M349.195,159.753 C349.861,169.42 345.963,173.242 336.212,172.483 C332.665,170.256 329.392,167.847 329.186,163.092 C328.958,157.811 332.298,153.026 337.069,151.916 C341.843,150.805 346.238,153.645 349.195,159.753" fill="#6E4300"/>
    <path d="M245.982,172.569 C235.989,175.14 231.044,171.27 230.81,160.698 C232.41,155.932 235.138,152.425 240.686,152.592 C245.289,152.731 248.435,155.266 250.108,159.442 C252.277,164.858 250.018,169.028 245.982,172.569" fill="#6E4100"/>
    <path d="M289.881,169.464 C290.876,169.464 291.878,169.386 292.865,169.477 C298.798,170.028 299.957,171.826 297.342,177.096 C295.804,180.196 293.703,183.015 291.872,185.971 C290.58,188.056 289.37,187.758 288.202,185.876 C286.37,182.922 284.303,180.081 282.777,176.976 C280.232,171.798 281.248,170.159 286.901,169.524 C287.888,169.414 288.886,169.403 289.879,169.347 C289.88,169.386 289.88,169.425 289.881,169.464" fill="#FF8F75"/>
  </g>
</svg>
